<svg xmlns="http://www.w3.org/2000/svg" width="13.975" height="16" viewBox="0 0 13.975 16" fill="none">
  <path d="M 6.988 0 C 7.253 0 7.507 0.105 7.695 0.293 L 13.695 6.293 C 13.877 6.482 13.978 6.734 13.975 6.996 C 13.973 7.259 13.868 7.509 13.683 7.695 C 13.497 7.88 13.246 7.985 12.984 7.988 C 12.722 7.99 12.469 7.889 12.281 7.707 L 7.988 3.414 L 7.988 15 C 7.988 15.265 7.882 15.52 7.695 15.707 C 7.507 15.895 7.253 16 6.988 16 C 6.722 16 6.468 15.895 6.281 15.707 C 6.093 15.52 5.988 15.265 5.988 15 L 5.988 3.414 L 1.695 7.707 C 1.506 7.889 1.254 7.99 0.991 7.988 C 0.729 7.985 0.478 7.88 0.293 7.695 C 0.107 7.509 0.002 7.259 0 6.996 C -0.002 6.734 0.099 6.482 0.281 6.293 L 6.281 0.293 C 6.468 0.105 6.723 0 6.988 0 Z" fill="#000" fill-rule="nonzero"></path>
</svg>