<svg xmlns="http://www.w3.org/2000/svg" width="20" height="16.000" viewBox="0 0 20 16.000" fill="none">
  <path d="M 19 0 C 19.245 0 19.481 0.09 19.664 0.253 C 19.847 0.415 19.964 0.64 19.993 0.883 L 20 1 L 20 7.5 C 20 8.395 19.657 9.256 19.042 9.906 C 18.427 10.556 17.586 10.946 16.692 10.995 L 16.5 11 L 3.415 11 L 6.707 14.293 C 6.879 14.465 6.983 14.694 6.998 14.937 C 7.013 15.18 6.939 15.421 6.79 15.613 L 6.707 15.707 C 6.535 15.879 6.306 15.983 6.063 15.998 C 5.82 16.013 5.579 15.939 5.387 15.79 L 5.293 15.707 L 0.293 10.707 C 0.258 10.672 0.226 10.635 0.196 10.595 L 0.125 10.485 L 0.071 10.371 L 0.036 10.266 L 0.011 10.149 L 0.004 10.089 L 0 10 L 0.003 9.925 L 0.02 9.799 L 0.05 9.688 L 0.094 9.577 L 0.146 9.479 L 0.21 9.387 L 0.293 9.293 L 5.293 4.293 C 5.473 4.114 5.714 4.01 5.968 4.002 C 6.222 3.994 6.47 4.083 6.66 4.251 C 6.851 4.419 6.97 4.654 6.994 4.906 C 7.018 5.159 6.945 5.412 6.79 5.613 L 6.707 5.707 L 3.415 9 L 16.5 9 C 16.873 9 17.232 8.861 17.508 8.611 C 17.784 8.36 17.957 8.016 17.993 7.645 L 18 7.5 L 18 1 C 18 0.735 18.105 0.48 18.293 0.293 C 18.48 0.105 18.735 0 19 0 Z" fill="#000" fill-rule="nonzero"></path>
</svg>