<svg xmlns="http://www.w3.org/2000/svg" width="19.999" height="22" viewBox="0 0 19.999 22" fill="none">
  <path d="M 10.865 19.5 C 11.141 19.022 11.753 18.858 12.231 19.134 C 12.71 19.41 12.874 20.022 12.598 20.5 C 12.334 20.956 11.955 21.334 11.499 21.598 C 11.043 21.861 10.526 22 9.999 22 C 9.472 22 8.955 21.861 8.499 21.598 C 8.043 21.334 7.665 20.956 7.401 20.5 C 7.125 20.022 7.289 19.41 7.767 19.134 C 8.246 18.858 8.857 19.022 9.133 19.5 C 9.22 19.652 9.347 19.778 9.499 19.866 C 9.651 19.954 9.823 20 9.999 20 C 10.174 20 10.347 19.954 10.499 19.866 C 10.651 19.778 10.777 19.652 10.865 19.5 Z M 14.999 7 C 14.999 5.674 14.473 4.402 13.535 3.465 C 12.597 2.527 11.325 2 9.999 2 C 8.673 2 7.401 2.527 6.464 3.465 C 5.526 4.403 4.999 5.674 4.999 7 C 4.999 9.354 4.63 10.998 4.032 12.264 C 3.442 13.514 2.658 14.321 2 15 L 17.999 15 C 17.339 14.32 16.557 13.513 15.967 12.264 C 15.369 10.998 14.999 9.354 14.999 7 Z M 16.999 7 C 16.999 9.145 17.335 10.479 17.774 11.409 C 18.105 12.109 18.512 12.622 18.975 13.125 L 19.457 13.631 L 19.478 13.654 C 19.739 13.941 19.911 14.297 19.974 14.68 C 20.036 15.062 19.986 15.454 19.829 15.809 C 19.672 16.163 19.415 16.464 19.091 16.676 C 18.806 16.861 18.48 16.971 18.143 16.995 L 17.999 17 L 1.999 17 C 1.611 17 1.232 16.887 0.907 16.675 C 0.582 16.463 0.326 16.161 0.17 15.807 C 0.013 15.452 -0.036 15.059 0.026 14.677 C 0.089 14.294 0.261 13.939 0.522 13.652 L 0.543 13.63 C 1.207 12.944 1.783 12.342 2.224 11.409 C 2.663 10.479 2.999 9.145 2.999 7 C 2.999 5.143 3.737 3.363 5.05 2.05 C 6.362 0.737 8.143 0 9.999 0 C 11.855 0 13.636 0.737 14.949 2.05 C 16.262 3.363 16.999 5.143 16.999 7 Z" fill="#000" fill-rule="nonzero"></path>
</svg>