<svg xmlns="http://www.w3.org/2000/svg" width="20" height="18" viewBox="0 0 20 18" fill="none">
  <path d="M 4 0 L 4 1 L 16 1 L 16 0 L 16 -1 L 4 -1 L 4 0 Z M 16 0 L 16 1 C 17.657 1 19 2.343 19 4 L 20 4 L 21 4 C 21 1.239 18.761 -1 16 -1 L 16 0 Z M 20 4 L 19 4 L 19 14 L 20 14 L 21 14 L 21 4 L 20 4 Z M 20 14 L 19 14 C 19 15.657 17.657 17 16 17 L 16 18 L 16 19 C 18.761 19 21 16.761 21 14 L 20 14 Z M 16 18 L 16 17 L 4 17 L 4 18 L 4 19 L 16 19 L 16 18 Z M 4 18 L 4 17 C 2.343 17 1 15.657 1 14 L 0 14 L -1 14 C -1 16.761 1.239 19 4 19 L 4 18 Z M 0 14 L 1 14 L 1 4 L 0 4 L -1 4 L -1 14 L 0 14 Z M 0 4 L 1 4 C 1 2.343 2.343 1 4 1 L 4 0 L 4 -1 C 1.239 -1 -1 1.239 -1 4 L 0 4 Z" fill="#000" fill-rule="nonzero"></path>
</svg>