<svg xmlns="http://www.w3.org/2000/svg" width="20" height="19" viewBox="-1 -1 22 20" fill="none">
  
  <path d="M 7 0 C 7 -0.552 6.552 -1 6 -1 C 5.448 -1 5 -0.552 5 0 L 6 0 L 7 0 Z M 5 4 C 5 4.552 5.448 5 6 5 C 6.552 5 7 4.552 7 4 L 6 4 L 5 4 Z M 15 0 C 15 -0.552 14.552 -1 14 -1 C 13.448 -1 13 -0.552 13 0 L 14 0 L 15 0 Z M 13 4 C 13 4.552 13.448 5 14 5 C 14.552 5 15 4.552 15 4 L 14 4 L 13 4 Z M 0 7 C -0.552 7 -1 7.448 -1 8 C -1 8.552 -0.552 9 0 9 L 0 8 L 0 7 Z M 20 9 C 20.552 9 21 8.552 21 8 C 21 7.448 20.552 7 20 7 L 20 8 L 20 9 Z M 6 0 L 5 0 L 5 4 L 6 4 L 7 4 L 7 0 L 6 0 Z M 14 0 L 13 0 L 13 4 L 14 4 L 15 4 L 15 0 L 14 0 Z M 0 8 L 0 9 L 20 9 L 20 8 L 20 7 L 0 7 L 0 8 Z" fill="#000" fill-rule="nonzero"></path>
  
  <path d="M 4 0 L 4 1 L 16 1 L 16 0 L 16 -1 L 4 -1 L 4 0 Z M 16 0 L 16 1 C 17.657 1 19 2.343 19 4 L 20 4 L 21 4 C 21 1.239 18.761 -1 16 -1 L 16 0 Z M 20 4 L 19 4 L 19 14 L 20 14 L 21 14 L 21 4 L 20 4 Z M 20 14 L 19 14 C 19 15.657 17.657 17 16 17 L 16 18 L 16 19 C 18.761 19 21 16.761 21 14 L 20 14 Z M 16 18 L 16 17 L 4 17 L 4 18 L 4 19 L 16 19 L 16 18 Z M 4 18 L 4 17 C 2.343 17 1 15.657 1 14 L 0 14 L -1 14 C -1 16.761 1.239 19 4 19 L 4 18 Z M 0 14 L 1 14 L 1 4 L 0 4 L -1 4 L -1 14 L 0 14 Z M 0 4 L 1 4 C 1 2.343 2.343 1 4 1 L 4 0 L 4 -1 C 1.239 -1 -1 1.239 -1 4 L 0 4 Z" fill="#000" fill-rule="nonzero"></path>
</svg>