<svg xmlns="http://www.w3.org/2000/svg" width="18" height="22" viewBox="0 0 18 22" fill="none">
  <path d="M 10.561 0 C 11.344 0 12.097 0.308 12.657 0.855 L 17.098 5.197 C 17.383 5.477 17.61 5.811 17.765 6.179 C 17.92 6.547 18 6.942 18 7.342 L 18 19 C 18 19.796 17.684 20.558 17.121 21.121 C 16.558 21.684 15.796 22 15 22 L 3 22 C 2.204 22 1.442 21.684 0.879 21.121 C 0.316 20.558 0 19.796 0 19 L 0 3 C 0 2.204 0.316 1.442 0.879 0.879 C 1.442 0.316 2.204 0 3 0 L 10.561 0 Z M 3 2 C 2.735 2 2.481 2.105 2.293 2.293 C 2.105 2.481 2 2.735 2 3 L 2 19 C 2 19.265 2.105 19.519 2.293 19.707 C 2.481 19.895 2.735 20 3 20 L 15 20 C 15.265 20 15.519 19.895 15.707 19.707 C 15.895 19.519 16 19.265 16 19 L 16 8 L 13 8 C 12.204 8 11.442 7.684 10.879 7.121 C 10.316 6.558 10 5.796 10 5 L 10 2 L 3 2 Z M 9 15 C 9.552 15 10 15.448 10 16 C 10 16.552 9.552 17 9 17 L 6 17 C 5.448 17 5 16.552 5 16 C 5 15.448 5.448 15 6 15 L 9 15 Z M 12 11 C 12.552 11 13 11.448 13 12 C 13 12.552 12.552 13 12 13 L 6 13 C 5.448 13 5 12.552 5 12 C 5 11.448 5.448 11 6 11 L 12 11 Z M 12 5 C 12 5.265 12.105 5.519 12.293 5.707 C 12.481 5.895 12.735 6 13 6 L 15.058 6 L 12 3.01 L 12 5 Z" fill="#000" fill-rule="nonzero"></path>
</svg>