<svg xmlns="http://www.w3.org/2000/svg" width="20" height="17.833" viewBox="0 0 20 17.833" fill="none">
  <path d="M 9.488 17.69 L 8.964 18.542 L 8.971 18.546 L 9.488 17.69 Z M 10 17.833 L 10 18.833 L 10 17.833 Z M 10.512 17.69 L 11.029 18.546 L 11.036 18.542 L 10.512 17.69 Z M 10 3 L 9.199 3.598 C 9.387 3.851 9.684 4 10 4 C 10.316 4 10.613 3.851 10.801 3.598 L 10 3 Z M 5 0 L 5 -1 C 1.696 -1 -1 1.654 -1 4.95 L 0 4.95 L 1 4.95 C 1 2.778 2.782 1 5 1 L 5 0 Z M 0 4.95 L -1 4.95 C -1 6.198 -0.749 8.238 0.648 10.661 C 2.041 13.079 4.544 15.825 8.964 18.542 L 9.488 17.69 L 10.012 16.838 C 5.819 14.26 3.578 11.739 2.38 9.663 C 1.187 7.592 1 5.909 1 4.95 L 0 4.95 Z M 9.488 17.69 L 8.971 18.546 C 9.281 18.734 9.637 18.833 10 18.833 L 10 17.833 L 10 16.833 C 10.002 16.833 10.004 16.833 10.005 16.834 L 9.488 17.69 Z M 10 17.833 L 10 18.833 C 10.363 18.833 10.719 18.734 11.029 18.546 L 10.512 17.69 L 9.995 16.834 C 9.996 16.833 9.998 16.833 10 16.833 L 10 17.833 Z M 10.512 17.69 L 11.036 18.542 C 15.456 15.825 17.959 13.079 19.353 10.661 C 20.749 8.238 21 6.198 21 4.95 L 20 4.95 L 19 4.95 C 19 5.909 18.814 7.592 17.62 9.663 C 16.423 11.739 14.182 14.26 9.988 16.838 L 10.512 17.69 Z M 20 4.95 L 21 4.95 C 21 1.654 18.304 -1 15 -1 L 15 0 L 15 1 C 17.218 1 19 2.778 19 4.95 L 20 4.95 Z M 15 0 L 15 -1 C 13.271 -1 11.796 -0.073 10.826 0.73 C 10.328 1.144 9.926 1.555 9.65 1.862 C 9.511 2.017 9.401 2.147 9.325 2.241 C 9.287 2.288 9.257 2.325 9.236 2.353 C 9.226 2.366 9.217 2.377 9.211 2.386 C 9.208 2.39 9.205 2.393 9.203 2.396 C 9.202 2.397 9.201 2.398 9.2 2.399 C 9.2 2.4 9.2 2.4 9.199 2.401 C 9.199 2.401 9.199 2.401 9.199 2.401 C 9.199 2.402 9.199 2.402 10 3 C 10.801 3.598 10.801 3.598 10.801 3.599 C 10.801 3.599 10.801 3.599 10.801 3.599 C 10.801 3.599 10.801 3.599 10.8 3.599 C 10.8 3.6 10.8 3.6 10.8 3.6 C 10.8 3.6 10.801 3.599 10.802 3.597 C 10.805 3.594 10.809 3.588 10.815 3.58 C 10.828 3.563 10.849 3.537 10.878 3.501 C 10.935 3.431 11.022 3.327 11.136 3.2 C 11.366 2.945 11.697 2.606 12.103 2.27 C 12.943 1.573 13.968 1 15 1 L 15 0 Z M 10 3 C 10.801 2.402 10.801 2.402 10.801 2.401 C 10.801 2.401 10.801 2.401 10.801 2.401 C 10.8 2.4 10.8 2.4 10.8 2.399 C 10.799 2.398 10.798 2.397 10.797 2.396 C 10.795 2.393 10.792 2.39 10.789 2.386 C 10.783 2.377 10.774 2.366 10.764 2.353 C 10.743 2.325 10.713 2.288 10.675 2.241 C 10.599 2.147 10.489 2.017 10.35 1.862 C 10.074 1.555 9.672 1.144 9.174 0.73 C 8.204 -0.073 6.729 -1 5 -1 L 5 0 L 5 1 C 6.032 1 7.057 1.573 7.897 2.27 C 8.303 2.606 8.634 2.945 8.864 3.2 C 8.978 3.327 9.065 3.431 9.122 3.501 C 9.151 3.537 9.172 3.563 9.185 3.58 C 9.191 3.588 9.195 3.594 9.198 3.597 C 9.199 3.599 9.2 3.6 9.2 3.6 C 9.2 3.6 9.2 3.6 9.2 3.599 C 9.199 3.599 9.199 3.599 9.199 3.599 C 9.199 3.599 9.199 3.599 9.199 3.599 C 9.199 3.598 9.199 3.598 10 3 Z" fill="#000" fill-rule="nonzero"></path>
</svg>