<svg xmlns="http://www.w3.org/2000/svg" width="23" height="22.750" viewBox="0 0 23 22.750" fill="none">
  <path d="M 14.525 2.015 C 14.648 2.011 14.775 2.008 14.906 2.006 L 14.915 2.051 C 15.022 2.587 15.14 3.497 15.14 4.908 C 15.14 5.023 15.139 5.135 15.137 5.244 C 15.135 5.43 15.184 5.613 15.281 5.773 C 15.377 5.933 15.516 6.063 15.681 6.148 C 16.98 6.813 17.98 7.919 18.542 9.313 C 18.625 9.519 18.774 9.692 18.966 9.803 C 19.158 9.915 19.381 9.96 19.601 9.931 C 20.005 9.875 20.41 9.838 20.817 9.821 C 20.833 9.82 20.85 9.822 20.865 9.828 C 20.875 9.831 20.884 9.837 20.893 9.845 C 20.91 9.861 20.936 9.897 20.941 9.962 C 20.973 10.39 21 10.979 21 11.747 C 21 12.514 20.973 13.104 20.941 13.532 C 20.936 13.597 20.91 13.633 20.893 13.649 C 20.885 13.656 20.875 13.662 20.865 13.667 C 20.85 13.672 20.833 13.674 20.817 13.673 C 20.508 13.66 20.2 13.636 19.893 13.599 C 19.654 13.572 19.413 13.632 19.214 13.768 C 19.015 13.904 18.872 14.107 18.811 14.34 C 18.567 15.277 18.14 16.11 17.571 16.802 C 17.452 16.947 17.376 17.123 17.352 17.309 C 17.328 17.495 17.357 17.685 17.435 17.855 C 17.718 18.47 17.989 19.09 18.249 19.714 C 18.323 19.891 18.262 20.052 18.157 20.132 C 17.962 20.279 17.79 20.399 17.668 20.468 C 17.543 20.54 17.346 20.63 17.115 20.726 C 16.993 20.776 16.824 20.747 16.709 20.598 C 16.338 20.12 15.975 19.637 15.619 19.147 C 15.499 18.981 15.331 18.856 15.137 18.789 C 14.944 18.722 14.735 18.716 14.538 18.772 C 14.013 18.92 13.448 19.008 12.849 19.024 C 12.213 19.042 11.519 19.051 10.767 19.052 C 10.016 19.051 9.322 19.042 8.686 19.024 C 8.115 19.01 7.548 18.925 6.998 18.771 C 6.801 18.716 6.592 18.722 6.398 18.789 C 6.204 18.856 6.036 18.981 5.916 19.146 C 5.56 19.636 5.197 20.12 4.826 20.598 C 4.711 20.747 4.543 20.776 4.421 20.726 C 4.232 20.651 4.047 20.564 3.867 20.468 C 3.745 20.398 3.573 20.279 3.378 20.132 C 3.273 20.052 3.213 19.891 3.286 19.714 C 3.497 19.208 3.781 18.547 4.1 17.855 C 4.178 17.685 4.207 17.495 4.183 17.309 C 4.159 17.123 4.083 16.947 3.964 16.802 C 3.046 15.685 2.496 14.198 2.489 12.495 C 2.488 12.322 2.488 12.149 2.489 11.976 C 2.497 10.002 3.23 8.302 4.464 7.131 C 4.484 7.114 4.504 7.096 4.523 7.077 C 5.593 6.089 7.028 5.492 8.686 5.446 C 9.322 5.429 10.016 5.42 10.767 5.419 L 10.794 5.419 C 11.04 5.42 11.278 5.329 11.461 5.165 C 11.645 5 11.761 4.774 11.788 4.53 C 11.948 3.082 13.022 2.055 14.526 2.014 M 3.431 5.372 C 4.804 4.211 6.588 3.503 8.632 3.447 C 9.057 3.435 9.505 3.427 9.977 3.423 C 10.554 1.46 12.27 0.075 14.472 0.016 C 14.832 0.006 15.226 0 15.652 0 C 15.837 0 16.019 0.052 16.177 0.149 C 16.335 0.247 16.463 0.387 16.546 0.553 L 15.651 1 C 15.948 0.85 16.247 0.701 16.546 0.554 L 16.547 0.555 L 16.548 0.557 L 16.551 0.562 L 16.556 0.572 C 16.57 0.604 16.584 0.635 16.597 0.668 C 16.62 0.721 16.646 0.793 16.677 0.883 C 16.736 1.062 16.807 1.316 16.876 1.659 C 17.006 2.308 17.126 3.28 17.139 4.674 C 18.393 5.448 19.409 6.552 20.077 7.865 C 20.304 7.845 20.527 7.831 20.746 7.823 C 21.94 7.78 22.85 8.694 22.935 9.811 C 22.971 10.292 23 10.931 23 11.747 C 23 12.563 22.971 13.202 22.935 13.684 C 22.85 14.8 21.94 15.714 20.746 15.671 C 20.661 15.668 20.576 15.664 20.491 15.66 C 20.244 16.335 19.911 16.975 19.5 17.566 C 19.73 18.08 19.934 18.558 20.095 18.944 C 20.497 19.909 20.243 21.063 19.363 21.728 C 19.148 21.89 18.896 22.07 18.662 22.204 C 18.423 22.34 18.132 22.471 17.877 22.575 C 16.872 22.99 15.761 22.64 15.129 21.824 C 14.881 21.505 14.637 21.184 14.396 20.86 C 13.904 20.956 13.405 21.011 12.903 21.024 C 12.192 21.043 11.48 21.052 10.767 21.052 C 9.997 21.052 9.288 21.042 8.632 21.024 C 8.13 21.011 7.631 20.956 7.139 20.86 C 6.869 21.222 6.618 21.551 6.406 21.824 C 5.774 22.639 4.663 22.99 3.658 22.575 C 3.389 22.468 3.127 22.344 2.874 22.204 C 2.63 22.059 2.396 21.9 2.172 21.728 C 1.293 21.063 1.038 19.909 1.44 18.944 C 1.602 18.558 1.805 18.08 2.035 17.566 C 1.047 16.151 0.497 14.405 0.489 12.503 C 0.488 12.325 0.488 12.146 0.489 11.968 C 0.497 10.101 1.029 8.395 1.966 7.008 C 0.83 6.444 0 5.286 0 3.915 C 0 1.969 1.668 0.454 3.512 0.454 C 5.102 0.454 6.396 1.378 6.396 2.796 C 6.396 3.061 6.29 3.316 6.103 3.503 C 5.915 3.691 5.661 3.796 5.396 3.796 C 5.13 3.796 4.876 3.691 4.688 3.503 C 4.501 3.316 4.396 3.061 4.396 2.796 C 4.396 2.786 4.394 2.73 4.299 2.654 C 4.2 2.574 3.966 2.454 3.512 2.454 C 2.702 2.454 2 3.143 2 3.915 C 2 4.661 2.655 5.329 3.431 5.373 M 8.646 8.46 C 8.776 8.441 8.901 8.397 9.014 8.329 C 9.127 8.262 9.225 8.173 9.303 8.067 C 9.381 7.962 9.438 7.842 9.47 7.715 C 9.502 7.587 9.509 7.455 9.49 7.325 C 9.47 7.195 9.426 7.07 9.358 6.958 C 9.291 6.845 9.202 6.747 9.096 6.668 C 8.991 6.59 8.871 6.533 8.744 6.501 C 8.616 6.469 8.484 6.463 8.354 6.482 C 7.346 6.631 6.431 7.005 5.656 7.563 C 5.441 7.718 5.296 7.952 5.253 8.214 C 5.21 8.476 5.274 8.744 5.429 8.959 C 5.583 9.174 5.818 9.319 6.079 9.362 C 6.341 9.405 6.609 9.341 6.825 9.186 C 7.335 8.819 7.948 8.564 8.646 8.46 Z M 15.319 8.045 C 15.585 8.045 15.839 8.151 16.027 8.338 C 16.214 8.526 16.319 8.78 16.319 9.045 L 16.319 9.534 C 16.319 9.799 16.214 10.054 16.027 10.241 C 15.839 10.429 15.585 10.534 15.319 10.534 C 15.054 10.534 14.8 10.429 14.612 10.241 C 14.425 10.054 14.319 9.799 14.319 9.534 L 14.319 9.045 C 14.319 8.78 14.425 8.526 14.612 8.338 C 14.8 8.151 15.054 8.045 15.319 8.045 Z" fill="#000" fill-rule="evenodd"></path>
</svg>